<svg width="43" height="43" viewBox="0 0 43 43" fill="none" xmlns="http://www.w3.org/2000/svg">
<g id="&#229;&#133;&#179;&#233;&#151;&#173; (1) 2">
<path id="Vector" d="M36.6509 31.7463H36.6535V31.7305L36.6509 31.7463Z" fill="#55351A"/>
<path id="Vector_2" d="M38.9623 21.4991C38.9623 11.8697 31.128 4.03711 21.5003 4.03711C11.8703 4.03711 4.03775 11.8697 4.03775 21.4991C4.03775 31.128 11.8703 38.9612 21.5003 38.9612C31.1279 38.9612 38.9623 31.128 38.9623 21.4991ZM21.5003 36.4557C13.2541 36.4557 6.54385 29.7442 6.54385 21.4991C6.54385 13.2529 13.2541 6.5433 21.5003 6.5433C29.7453 6.5433 36.4556 13.2529 36.4556 21.4991C36.4556 29.7442 29.7453 36.4557 21.5003 36.4557Z" fill="white"/>
<path id="Vector_3" d="M28.6546 26.9684L23.2552 21.553L28.6496 16.2185C29.1393 15.735 29.143 14.9447 28.6595 14.455C28.176 13.9647 27.3845 13.9609 26.8947 14.4457L21.4953 19.7864L16.1764 14.4507C15.6892 13.9634 14.9001 13.961 14.4116 14.4482C13.9244 14.9361 13.9244 15.725 14.4091 16.2123L19.7219 21.5406L14.3671 26.8373C13.8774 27.322 13.8724 28.1098 14.3572 28.5997C14.6021 28.847 14.9212 28.9706 15.2427 28.9706C15.5593 28.9706 15.8783 28.8495 16.1208 28.6108L21.483 23.3066L26.8873 28.7307C27.131 28.9743 27.4512 29.0968 27.7715 29.0968C28.0906 29.0968 28.4084 28.9743 28.6521 28.7332C29.1393 28.2472 29.1405 27.4581 28.6546 26.9684Z" fill="white"/>
</g>
</svg>
