<?xml version="1.0" standalone="no"?><!DOCTYPE svg PUBLIC "-//W3C//DTD SVG 1.1//EN" "http://www.w3.org/Graphics/SVG/1.1/DTD/svg11.dtd"><svg t="1694481565552" class="icon" viewBox="0 0 1024 1024" version="1.1" xmlns="http://www.w3.org/2000/svg" p-id="6669" xmlns:xlink="http://www.w3.org/1999/xlink" width="200" height="200"><path d="M4 16a3 3 0 0 1 3-3h19a3 3 0 0 1 3 3v19a3 3 0 0 1-3 3H7a3 3 0 0 1-3-3V16z" p-id="6670" fill="#ffffff"></path><path d="M14 7a3 3 0 0 1 3-3h19a3 3 0 0 1 3 3v19a3 3 0 0 1-3 3H17a3 3 0 0 1-3-3V7z" p-id="6671" fill="#ffffff"></path><path d="M409.013 88c-56.049 0-101.487 45.522-101.487 101.676v429.297c0 56.154 45.438 101.676 101.487 101.676h428.5c56.05 0 101.487-45.522 101.487-101.676V189.676C939 133.522 893.563 88 837.513 88h-428.5z m-33.829 101.676c0-18.718 15.146-33.892 33.829-33.892h428.5c18.683 0 33.829 15.174 33.829 33.892v429.297c0 18.718-15.146 33.892-33.829 33.892h-428.5c-18.683 0-33.829-15.174-33.829-33.892V189.676zM251.145 302.649c0-3.826 0.237-7.597 0.698-11.298h-68.356C127.437 291.351 82 336.873 82 393.027v429.297C82 878.478 127.437 924 183.487 924h428.5c56.049 0 101.487-45.522 101.487-101.676v-45.189h-67.658v45.189c0 18.718-15.146 33.892-33.829 33.892h-428.5c-18.683 0-33.829-15.174-33.829-33.892V393.027c0-18.718 15.146-33.892 33.829-33.892h67.658v-56.486z" p-id="6672" fill="#ffffff"></path></svg>