<svg width="8" height="13" viewBox="0 0 8 13" fill="none" xmlns="http://www.w3.org/2000/svg">
<path id="Arrow - Down 3" d="M7.2734 6.41121C7.18924 6.25521 7.02921 6.15796 6.85516 6.15796H4.14486V0.806424C4.14486 0.536204 3.93064 0.316895 3.66668 0.316895C3.40273 0.316895 3.18851 0.536204 3.18851 0.806424V6.15796H0.47821C0.303516 6.15796 0.143487 6.25521 0.0599654 6.41121C-0.0248311 6.56721 -0.019093 6.7578 0.0733543 6.90857L3.26183 12.0884C3.34981 12.2307 3.50219 12.3169 3.66668 12.3169C3.83118 12.3169 3.98355 12.2307 4.07154 12.0884L7.26001 6.90857C7.30847 6.82894 7.33333 6.73822 7.33333 6.64749C7.33333 6.56656 7.31293 6.48497 7.2734 6.41121Z" fill="#FA2256"/>
</svg>
