<svg width="18" height="18" viewBox="0 0 18 18" fill="none" xmlns="http://www.w3.org/2000/svg">
<path id="like" d="M14.4998 9.70001V0.300049C14.4998 0.134049 14.6338 0 14.7998 0H16.4998C17.3278 0 17.9998 0.672 17.9998 1.5V8.5C17.9998 9.328 17.3278 10 16.4998 10H14.7998C14.6348 10 14.4998 9.86601 14.4998 9.70001ZM3.10181 12H7.00171V15.24C7.00171 16.24 7.5018 17.18 8.3418 17.73C8.6118 17.91 8.9218 18 9.2218 18C9.8518 18 10.4618 17.62 10.7018 16.97L12.9868 10.046C12.9968 10.016 13.0017 9.98403 13.0017 9.95203V0.300049C13.0017 0.134049 12.8678 0 12.7018 0H5.10278C3.09278 0 2.66281 0.829988 2.25281 2.04999L0.252808 8.04999C-0.398192 9.98999 0.0918067 12 3.10181 12Z" fill="#FF0000"/>
</svg>
