<svg width="18" height="18" viewBox="0 0 18 18" fill="none" xmlns="http://www.w3.org/2000/svg">
<path id="like" d="M3.5 9.70001V0.300049C3.5 0.134049 3.36595 0 3.19995 0H1.5C0.672 0 0 0.672 0 1.5V8.5C0 9.328 0.672 10 1.5 10H3.19995C3.36495 10 3.5 9.86601 3.5 9.70001ZM14.8979 12H10.998V15.24C10.998 16.24 10.498 17.18 9.65796 17.73C9.38796 17.91 9.07795 18 8.77795 18C8.14795 18 7.53797 17.62 7.29797 16.97L5.01294 10.046C5.00294 10.016 4.99805 9.98403 4.99805 9.95203V0.300049C4.99805 0.134049 5.13197 0 5.29797 0H12.897C14.907 0 15.3369 0.829988 15.7469 2.04999L17.7469 8.04999C18.3979 9.98999 17.9079 12 14.8979 12Z" fill="white"/>
</svg>
