<svg width="92" height="110" viewBox="0 0 92 110" fill="none" xmlns="http://www.w3.org/2000/svg">
<g id="Dollar">
<g id="Group">
<path id="Union" d="M68.0864 52.305L70.0745 57.312L71.6075 62.4642L72.6484 67.7242L73.156 73.0563L73.0891 78.2556L72.4535 83.1234L71.272 87.6292L69.5666 91.7381L67.3581 95.4101L64.6682 98.6007L61.5169 101.262L57.9252 103.341L53.9144 104.78L49.5086 105.514L44.7359 105.475L39.6311 104.59L34.409 102.847L29.3047 100.317L24.3917 97.0564L19.7452 93.1309L15.4403 88.6152L11.551 83.592L8.14814 78.1506L5.29886 72.3859L3.06472 66.3968L1.50088 60.2843L0.654931 54.1504L0.566018 48.0953L1.23832 42.3986L2.60328 37.2981L4.58423 32.8221L7.10601 28.9907L10.0971 25.817L13.4913 23.3091L17.2283 21.4726L21.2529 20.3126L25.5149 19.8346L29.9676 20.0456L34.5678 20.9537L39.276 22.569L43.9061 24.8268L48.2849 27.6117L52.3929 30.8635L56.2092 34.5262L59.7114 38.5484L62.8758 42.8818L65.6767 47.4815L68.0864 52.305Z" fill="#5FC976" fill-opacity="0.62" stroke="url(#paint0_linear_311_1145)" stroke-width="1.13106"/>
<g id="Union_2" filter="url(#filter0_b_311_1145)">
<path fill-rule="evenodd" clip-rule="evenodd" d="M2.19524 37.4568L0.752657 42.7488L0 48.6273L0.00503054 54.8486L0.764752 61.1292L2.2398 67.3693L4.38345 73.4683L7.14235 79.3265L10.4574 84.8463L14.265 89.9342L18.4977 94.5016L23.0858 98.4659L27.9584 101.752L33.0442 104.292L38.273 106.027L43.4128 106.883L48.2479 106.87L52.738 106.059L56.0434 104.862L59.4095 103.644L62.8382 102.402L66.331 101.138L61.8255 101.924L56.9562 101.882L51.7624 100.939L46.4616 99.0866L41.2891 96.4022L36.318 92.9476L31.622 88.7934L27.275 84.0187L23.3496 78.71L19.916 72.9607L17.0407 66.8694L14.7854 60.5386L13.2058 54.0735L12.3505 47.5798L12.2605 41.1624L12.9421 35.1145L14.3293 29.6866L16.3475 24.9116L18.9228 20.8147L21.9831 17.4145L25.4599 14.7246L22.3654 16.7785L19.3274 18.7948L16.3445 20.7746L13.4151 22.7189L9.93364 25.398L6.85735 28.7584L4.25439 32.7846L2.19524 37.4568Z" fill="url(#paint1_linear_311_1145)" fill-opacity="0.6"/>
</g>
<g id="Union_3" filter="url(#filter1_b_311_1145)">
<path fill-rule="evenodd" clip-rule="evenodd" d="M82.8865 50.6523L80.8798 45.3601L78.4482 40.2633L75.6219 35.4034L72.4285 30.8242L68.8929 26.5724L65.038 22.6982L60.8849 19.256L56.4535 16.3048L51.7622 13.9094L46.9836 12.1927L42.3036 11.2253L37.763 11L33.4076 11.5115L29.288 12.7548L25.4596 14.7249L21.9829 17.4148L18.9225 20.8149L16.3473 24.9119L14.3291 29.6869L12.9419 35.1147L12.2603 41.1626L12.3502 47.58L13.2055 54.0737L14.7852 60.5389L17.0405 66.8696L19.9158 72.961L23.3494 78.7103L27.2748 84.0189L31.6218 88.7936L36.3178 92.9478L41.2889 96.4025L46.4613 99.0869L51.7622 100.939L56.9559 101.883L61.8252 101.924L66.3308 101.138L70.4384 99.5953L74.1187 97.3646L77.3456 94.5109L80.096 91.0947L82.3499 87.1707L84.0867 82.7892L85.2874 77.9942L85.9321 72.8243L85.9998 67.3121L85.4865 61.6661L84.4347 56.1004L82.8865 50.6523Z" fill="url(#paint2_linear_311_1145)" fill-opacity="0.2"/>
<path d="M80.3593 45.5825L82.3492 50.8303L83.8837 56.2304L84.9258 61.7444L85.4339 67.3343L85.367 72.7857L84.7304 77.8901L83.5472 82.6155L81.8391 86.9244L79.6278 90.7746L76.9351 94.1189L73.7821 96.9073L70.1903 99.0844L66.1815 100.59L61.7787 101.359L57.0092 101.318L51.9069 100.391L46.686 98.5664L41.5817 95.9173L36.6677 92.5023L32.0194 88.3903L27.7123 83.6595L23.8206 78.3965L20.4154 72.6947L17.5638 66.6535L15.3276 60.3764L13.7622 53.9694L12.9153 47.539L12.8262 41.1905L13.4995 35.2169L14.8665 29.868L16.8504 25.1742L19.3754 21.1571L22.3692 17.8309L25.7646 15.204L29.5008 13.2813L33.5232 12.0673L37.7821 11.5672L42.2319 11.7879L46.83 12.7385L51.5371 14.4295L56.1672 16.7936L60.5469 19.7103L64.6562 23.1163L68.4742 26.9534L71.9783 31.1674L75.1447 35.7078L77.9477 40.5277L80.3593 45.5825Z" stroke="url(#paint3_linear_311_1145)" stroke-width="1.13106"/>
</g>
</g>
<g id="Group_2">
<g id="Vector" filter="url(#filter2_f_311_1145)">
<path d="M48.9826 30.6507C50.6358 31.0557 52.003 32.7667 52.0867 34.4987L52.2053 37.5436C58.1204 40.2602 60.7431 46.1056 61.0222 49.8768C61.1617 51.6157 59.9619 52.754 58.3436 52.4118C58.2669 52.4049 58.1902 52.3909 58.1134 52.3699C56.6416 52.0277 55.3233 50.3307 55.1907 48.6965C55.0861 47.5791 54.3397 43.8708 49.5825 42.7674C44.9997 41.7059 44.5812 44.8206 44.6091 46.2103C44.7207 47.3487 45.5089 50.5053 50.1266 51.5668C58.1902 53.4315 61.5732 60.7993 61.8801 65.3107L61.8871 65.4644L61.8801 65.639C61.7685 67.8947 60.9594 69.8431 59.5713 71.2049C58.1832 72.5668 56.2998 73.2721 54.1863 73.2093L54.3816 76.7919C54.4723 78.5169 53.2237 79.6133 51.6054 79.2362C49.9871 78.8591 48.599 77.155 48.5083 75.4301L48.313 71.8475C42.363 69.1587 39.9914 63.4251 39.5938 60.4082C39.3496 58.6622 40.4518 57.4192 42.0631 57.6356C42.1468 57.6496 42.2305 57.6636 42.3142 57.6845C43.8557 58.0407 45.1741 59.5352 45.4043 61.2113C45.5647 62.189 46.4576 65.5691 50.9358 66.6027C55.3512 67.6223 55.9301 64.7031 56.0138 63.886C55.8464 62.5522 55.0094 58.8787 50.4614 57.8242C42.3979 55.9596 39.0358 49.0387 38.7498 44.8345C38.5754 40.9865 40.5494 36.1399 46.3669 36.1678L46.2274 33.067C46.1437 31.363 47.3853 30.2805 48.9826 30.6507Z" fill="url(#paint4_linear_311_1145)"/>
</g>
<path id="Union_4" fill-rule="evenodd" clip-rule="evenodd" d="M45.8486 33.3835L48.0827 31.7549C48.0409 30.8293 48.3889 30.0915 48.9666 29.667L46.7325 31.2956C46.1548 31.7201 45.8068 32.4579 45.8486 33.3835ZM45.9878 36.4737L48.2219 34.8521L48.0827 31.755L45.8486 33.3836L45.9878 36.4737Z" fill="url(#paint5_linear_311_1145)"/>
<path id="Union_5" fill-rule="evenodd" clip-rule="evenodd" d="M57.9452 52.6623L57.9449 52.6625C57.8684 52.6555 57.7918 52.6416 57.7152 52.6208C56.2467 52.2797 54.9313 50.5885 54.7991 48.9599C54.6947 47.8463 53.95 44.1506 49.2034 43.051C47.366 42.6264 46.1967 42.877 45.459 43.4129L47.6931 41.7843C48.4308 41.2484 49.6001 40.9978 51.4375 41.4224C56.1841 42.5151 56.9288 46.2108 57.0332 47.3313C57.1654 48.9599 58.4878 50.6511 59.9493 50.9922L60.1788 51.0339L60.1791 51.0337C60.8796 51.1793 61.5111 51.0485 61.977 50.71L59.7475 52.3351C59.2813 52.6761 58.648 52.8084 57.9452 52.6623Z" fill="url(#paint6_linear_311_1145)" fill-opacity="0.6"/>
<path id="Union_6" fill-rule="evenodd" clip-rule="evenodd" d="M38.3881 45.1175L38.3877 45.1178C38.2694 42.5427 39.1185 39.5152 41.45 37.817L43.68 36.1914C41.3536 37.8887 40.5051 40.9102 40.6215 43.4824L40.6218 43.4822C40.9141 47.672 44.2687 54.5692 52.3073 56.4274C56.8451 57.4784 57.6803 61.1392 57.8473 62.4686L55.6132 64.0972C55.4462 62.7678 54.611 59.107 50.0732 58.056C42.032 56.1988 38.6766 49.308 38.3881 45.1175ZM56.6225 64.7863L54.3895 66.4141C55.3629 65.7041 55.5715 64.5634 55.6133 64.1043L57.8474 62.4757C57.8056 62.935 57.5968 64.0695 56.6225 64.7863Z" fill="url(#paint7_linear_311_1145)" fill-opacity="0.6"/>
<path id="Vector_2" d="M60.638 70.4033L58.4039 72.0319C57.1233 72.9645 55.5295 73.4378 53.7896 73.3891L56.0237 71.7605C57.7706 71.8092 59.3574 71.3429 60.638 70.4033Z" fill="#3BB439"/>
<path id="Union_7" fill-rule="evenodd" clip-rule="evenodd" d="M48.1246 75.6091L50.3587 73.9805L50.1638 70.4102L47.9297 72.0388L48.1246 75.6091ZM53.1007 79.0823L55.3348 77.4537C54.8407 77.8086 54.1865 77.9408 53.4487 77.7738C51.834 77.398 50.449 75.6998 50.3586 73.9807L48.1244 75.6093C48.2149 77.3284 49.5999 79.0266 51.2146 79.4024C51.9523 79.5764 52.6066 79.4372 53.1007 79.0823Z" fill="url(#paint8_linear_311_1145)"/>
<path id="Vector_3" d="M50.1637 70.4096L47.9296 72.0382C41.9929 69.3587 39.6266 63.6447 39.2299 60.638C39.0837 59.5871 39.4317 58.7171 40.079 58.2438L42.3131 56.6152C41.6588 57.0885 41.3178 57.9585 41.464 59.0094C41.8607 62.0161 44.227 67.7301 50.1637 70.4096Z" fill="url(#paint9_linear_311_1145)"/>
<g id="Vector_4" filter="url(#filter3_b_311_1145)">
<path d="M50.8387 29.3467C52.4882 29.7504 53.8523 31.4555 53.9358 33.1816L54.0541 36.2161C59.9561 38.9234 62.573 44.7488 62.8514 48.5071C62.9906 50.2401 61.7935 51.3746 60.1788 51.0335C60.1022 51.0266 60.0257 51.0127 59.9491 50.9918C58.4806 50.6507 57.1652 48.9595 57.033 47.3309C56.9286 46.2173 56.1839 42.5217 51.4373 41.422C46.8646 40.3641 46.4471 43.4682 46.4749 44.8532C46.5863 45.9877 47.3727 49.1335 51.9801 50.1914C60.0257 52.0497 63.4012 59.3923 63.7074 63.8883L63.7144 64.0415L63.7074 64.2154C63.5961 66.4635 62.7887 68.4053 61.4037 69.7624C60.0187 71.1196 58.1396 71.8225 56.0307 71.7599L56.2256 75.3303C56.3161 77.0494 55.0703 78.142 53.4556 77.7662C51.8409 77.3904 50.4559 75.6922 50.3654 73.9731L50.1706 70.4027C44.2338 67.7232 41.8675 62.0092 41.4708 59.0025C41.2272 57.2626 42.3268 56.0237 43.9346 56.2395C44.0181 56.2534 44.1016 56.2673 44.1851 56.2882C45.7232 56.6432 47.0386 58.1326 47.2683 59.8029C47.4284 60.7773 48.3193 64.1458 52.7875 65.1759C57.193 66.192 57.7707 63.2828 57.8542 62.4685C57.6872 61.1392 56.852 57.4783 52.3142 56.4274C44.2686 54.5691 40.914 47.6719 40.6286 43.4821C40.4547 39.6473 42.4243 34.8171 48.2288 34.845L48.0896 31.7548C48.0061 30.0566 49.2449 28.9779 50.8387 29.3467Z" fill="url(#paint10_linear_311_1145)" fill-opacity="0.7"/>
</g>
</g>
</g>
<defs>
<filter id="filter0_b_311_1145" x="-33.9318" y="-19.2072" width="134.195" height="160.022" filterUnits="userSpaceOnUse" color-interpolation-filters="sRGB">
<feFlood flood-opacity="0" result="BackgroundImageFix"/>
<feGaussianBlur in="BackgroundImageFix" stdDeviation="16.9659"/>
<feComposite in2="SourceAlpha" operator="in" result="effect1_backgroundBlur_311_1145"/>
<feBlend mode="normal" in="SourceGraphic" in2="effect1_backgroundBlur_311_1145" result="shape"/>
</filter>
<filter id="filter1_b_311_1145" x="-2.44351" y="-3.70376" width="103.147" height="120.332" filterUnits="userSpaceOnUse" color-interpolation-filters="sRGB">
<feFlood flood-opacity="0" result="BackgroundImageFix"/>
<feGaussianBlur in="BackgroundImageFix" stdDeviation="7.35188"/>
<feComposite in2="SourceAlpha" operator="in" result="effect1_backgroundBlur_311_1145"/>
<feBlend mode="normal" in="SourceGraphic" in2="effect1_backgroundBlur_311_1145" result="shape"/>
</filter>
<filter id="filter2_f_311_1145" x="8.73926" y="0.578125" width="83.1479" height="108.732" filterUnits="userSpaceOnUse" color-interpolation-filters="sRGB">
<feFlood flood-opacity="0" result="BackgroundImageFix"/>
<feBlend mode="normal" in="SourceGraphic" in2="BackgroundImageFix" result="shape"/>
<feGaussianBlur stdDeviation="15" result="effect1_foregroundBlur_311_1145"/>
</filter>
<filter id="filter3_b_311_1145" x="25.0246" y="13.6809" width="54.2833" height="79.7525" filterUnits="userSpaceOnUse" color-interpolation-filters="sRGB">
<feFlood flood-opacity="0" result="BackgroundImageFix"/>
<feGaussianBlur in="BackgroundImageFix" stdDeviation="7.79677"/>
<feComposite in2="SourceAlpha" operator="in" result="effect1_backgroundBlur_311_1145"/>
<feBlend mode="normal" in="SourceGraphic" in2="effect1_backgroundBlur_311_1145" result="shape"/>
</filter>
<linearGradient id="paint0_linear_311_1145" x1="0.0683906" y1="85.3176" x2="35.4954" y2="62.2341" gradientUnits="userSpaceOnUse">
<stop stop-color="white" stop-opacity="0.27"/>
<stop offset="0.688828" stop-color="white" stop-opacity="0"/>
</linearGradient>
<linearGradient id="paint1_linear_311_1145" x1="19.2917" y1="28.569" x2="52.3664" y2="106.119" gradientUnits="userSpaceOnUse">
<stop offset="0.325325" stop-color="#C0FFCA"/>
<stop offset="0.59538" stop-color="#12C138"/>
<stop offset="0.814274" stop-color="#057417"/>
<stop offset="0.896974" stop-color="#05741D"/>
<stop offset="1" stop-color="#0D9B2C"/>
</linearGradient>
<linearGradient id="paint2_linear_311_1145" x1="-6.54565" y1="50.9614" x2="108.058" y2="62.7295" gradientUnits="userSpaceOnUse">
<stop offset="0.89375" stop-color="#00AA11"/>
</linearGradient>
<linearGradient id="paint3_linear_311_1145" x1="4.82267" y1="76.7985" x2="62.1902" y2="86.9166" gradientUnits="userSpaceOnUse">
<stop offset="0.0596223" stop-color="white" stop-opacity="0.45"/>
<stop offset="0.701218" stop-color="white" stop-opacity="0"/>
</linearGradient>
<linearGradient id="paint4_linear_311_1145" x1="43.3432" y1="33.3618" x2="48.0078" y2="96.5874" gradientUnits="userSpaceOnUse">
<stop offset="0.46041" stop-color="#1C8533"/>
<stop offset="1" stop-color="#94F29D"/>
</linearGradient>
<linearGradient id="paint5_linear_311_1145" x1="47.4059" y1="29.667" x2="47.4059" y2="36.4737" gradientUnits="userSpaceOnUse">
<stop stop-color="#94FA9E"/>
<stop offset="1" stop-color="#59D875"/>
</linearGradient>
<linearGradient id="paint6_linear_311_1145" x1="50.2631" y1="42.9376" x2="52.6058" y2="53.8869" gradientUnits="userSpaceOnUse">
<stop stop-color="#12C123"/>
<stop offset="0.544343" stop-color="#12C14D"/>
<stop offset="1" stop-color="#0D9B57"/>
</linearGradient>
<linearGradient id="paint7_linear_311_1145" x1="44.0397" y1="40.7315" x2="55.7119" y2="65.2278" gradientUnits="userSpaceOnUse">
<stop offset="0.0486117" stop-color="#8FEDA9"/>
<stop offset="0.372917" stop-color="#12C143"/>
<stop offset="0.716667" stop-color="#12C138"/>
<stop offset="1" stop-color="#0D9B35"/>
</linearGradient>
<linearGradient id="paint8_linear_311_1145" x1="51.6323" y1="70.4102" x2="51.6323" y2="79.477" gradientUnits="userSpaceOnUse">
<stop stop-color="#69D888"/>
<stop offset="1" stop-color="#28A844"/>
</linearGradient>
<linearGradient id="paint9_linear_311_1145" x1="44.6803" y1="56.6152" x2="44.8307" y2="75.0466" gradientUnits="userSpaceOnUse">
<stop stop-color="#8EEDA3"/>
<stop offset="1" stop-color="#29B350"/>
</linearGradient>
<linearGradient id="paint10_linear_311_1145" x1="45.2119" y1="32.0486" x2="49.855" y2="95.059" gradientUnits="userSpaceOnUse">
<stop offset="0.46041" stop-color="#CAFFD6"/>
<stop offset="1" stop-color="#50DD78"/>
</linearGradient>
</defs>
</svg>
