<?xml version="1.0" encoding="UTF-8"?>
<svg width="24px" height="24px" viewBox="0 0 24 24" version="1.1" xmlns="http://www.w3.org/2000/svg" xmlns:xlink="http://www.w3.org/1999/xlink">
    <title>165270A4-E68F-4955-8484-71F58265304B</title>
    <g id="Icon" stroke="none" stroke-width="1" fill="none" fill-rule="evenodd">
        <g id="Icon-/-drop" fill="#D93D57" fill-rule="nonzero">
            <g id="上升" transform="translate(12.000000, 12.500000) scale(1, -1) translate(-12.000000, -12.500000) translate(2.000000, 7.000000)">
                <path d="M17.5603084,6.50267252 L16.7120003,5.60221321 L12.6681284,9.89452701 L12.6681284,9.89452701 C12.1867701,10.4157525 11.3775065,10.44482 10.8605877,9.95945051 C10.8383679,9.93858685 10.816892,9.91693195 10.7962007,9.89452701 L6.70408672,5.54883509 L2.25899405,10.2670581 L2.25899409,10.267058 C1.77824073,10.7879561 0.969726934,10.817252 0.453138996,10.3324924 C0.430737731,10.3114716 0.40909262,10.289646 0.388245442,10.267058 L0.388245425,10.267058 C-0.129138791,9.70784223 -0.129138791,8.84028047 0.388245459,8.28106676 L5.76752734,2.57103685 L5.7675273,2.57103689 C6.24732616,2.05013884 7.05505712,2.02006295 7.5716554,2.50386013 C7.59467476,2.52541816 7.61689702,2.5478256 7.63827687,2.57103679 L11.7315698,6.91436168 L14.8400736,3.61623224 L13.8752846,2.59120244 C13.5270195,2.22223963 13.6858563,1.58990029 14.1623676,1.45584082 L19.1957443,0.0238808254 C19.6722557,-0.111366329 20.107587,0.350133838 19.9793408,0.855530442 L18.6309939,6.19897292 C18.5039245,6.70318288 17.9085785,6.87283436 17.5603103,6.50268491" id="路径"></path>
            </g>
        </g>
    </g>
</svg>