<?xml version="1.0" standalone="no"?><!DOCTYPE svg PUBLIC "-//W3C//DTD SVG 1.1//EN" "http://www.w3.org/Graphics/SVG/1.1/DTD/svg11.dtd"><svg t="1694432218907" class="icon" viewBox="0 0 1024 1024" version="1.1" xmlns="http://www.w3.org/2000/svg" p-id="1469" xmlns:xlink="http://www.w3.org/1999/xlink" width="200" height="200"><path d="M0 511.68c0 36.59 19.52 70.41 51.22 88.7 31.69 18.3 70.73 18.3 102.43 0 31.69-18.29 51.21-52.11 51.21-88.7 0-56.57-45.86-102.43-102.43-102.43-56.57 0-102.43 45.86-102.43 102.43z m0 0M410.01 511.68c0 36.59 19.52 70.41 51.21 88.7 31.69 18.3 70.74 18.3 102.43 0 31.69-18.29 51.22-52.11 51.22-88.7s-19.53-70.41-51.22-88.7a102.417 102.417 0 0 0-102.43 0c-31.69 18.29-51.21 52.1-51.21 88.7z m0 0M820.12 511.68c0 36.59 19.52 70.41 51.21 88.7 31.69 18.3 70.74 18.3 102.43 0 31.69-18.29 51.22-52.11 51.22-88.7s-19.52-70.41-51.22-88.7a102.417 102.417 0 0 0-102.43 0 102.424 102.424 0 0 0-51.21 88.7z m0 0" fill="#ffffff" p-id="1470"></path></svg>