<svg width="52" height="52" viewBox="0 0 52 52" fill="none" xmlns="http://www.w3.org/2000/svg">
<g id="&#229;&#150;&#135;&#229;&#143;&#173; 2">
<path id="Vector" d="M39.8667 28.5693V34.2269C39.8667 34.6784 39.7492 35.1222 39.5256 35.5145C39.302 35.9068 38.9802 36.2341 38.5917 36.4642C38.2032 36.6943 37.7615 36.8192 37.31 36.8268C36.8585 36.8343 36.4129 36.7241 36.0169 36.5071L19.5173 27.4643C19.3812 27.3896 19.2677 27.2798 19.1886 27.1462C19.1095 27.0127 19.0676 26.8603 19.0675 26.7051V20.5249C19.0676 20.3694 19.1094 20.2168 19.1887 20.0831C19.268 19.9494 19.3818 19.8394 19.5182 19.7648L36.0161 10.7203C36.412 10.5031 36.8576 10.3927 37.3091 10.4001C37.7607 10.4075 38.2025 10.5323 38.5911 10.7624C38.9797 10.9924 39.3017 11.3197 39.5253 11.712C39.749 12.1042 39.8666 12.548 39.8667 12.9996V18.5506H41.6V12.9996C41.6 12.2471 41.4041 11.5076 41.0315 10.8538C40.6589 10.2 40.1225 9.65449 39.4751 9.27099C38.8276 8.88748 38.0915 8.67919 37.3391 8.66662C36.5867 8.65405 35.844 8.83762 35.1841 9.19928L18.6836 18.2438C18.275 18.4678 17.9341 18.7974 17.6966 19.1982C17.4591 19.5991 17.3336 20.0563 17.3333 20.5223V26.7033C17.3334 27.1694 17.4588 27.6269 17.6964 28.0279C17.9339 28.4289 18.2749 28.7587 18.6836 28.9827L35.1841 38.0263C35.8439 38.388 36.5865 38.5715 37.3389 38.559C38.0912 38.5465 38.8273 38.3383 39.4747 37.9549C40.1221 37.5715 40.6586 37.0261 41.0312 36.3724C41.4039 35.7187 41.5999 34.9793 41.6 34.2269V28.5693H39.8667Z" fill="white"/>
<path id="Vector_2" d="M39.8667 28.7116V34.0156C39.8667 35.0287 39.3874 35.7489 39 35.7489C38.6126 35.7489 38.1333 35.0287 38.1333 34.0156V13.2156C38.1333 12.2016 38.6126 11.4822 39 11.4822C39.3874 11.4822 39.8667 12.2016 39.8667 13.2156V18.5066H41.6V13.2147C41.6 11.3566 40.5279 9.74805 39 9.74805C37.4721 9.74805 36.4 11.3566 36.4 13.2147V34.0147C36.4 35.8728 37.4721 37.4814 39 37.4814C40.5279 37.4814 41.6 35.8728 41.6 34.0147V28.7107H39.8667V28.7116ZM13.8667 19.2814H15.6C16.5194 19.2814 17.4012 19.6466 18.0513 20.2967C18.7014 20.9469 19.0667 21.8286 19.0667 22.748V24.4814C19.0667 25.4008 18.7014 26.2826 18.0513 26.9327C17.4012 27.5828 16.5194 27.948 15.6 27.948H13.8667C12.9473 27.948 12.0655 27.5828 11.4154 26.9327C10.7652 26.2826 10.4 25.4008 10.4 24.4814V22.748C10.4 21.8286 10.7652 20.9469 11.4154 20.2967C12.0655 19.6466 12.9473 19.2814 13.8667 19.2814ZM13.8667 21.0147C13.639 21.0147 13.4136 21.0595 13.2033 21.1467C12.9931 21.2338 12.802 21.3614 12.641 21.5224C12.4801 21.6834 12.3524 21.8744 12.2653 22.0847C12.1782 22.295 12.1333 22.5204 12.1333 22.748V24.4814C12.1333 24.709 12.1782 24.9344 12.2653 25.1447C12.3524 25.355 12.4801 25.5461 12.641 25.707C12.802 25.868 12.9931 25.9957 13.2033 26.0828C13.4136 26.1699 13.639 26.2147 13.8667 26.2147H15.6C15.8276 26.2147 16.053 26.1699 16.2633 26.0828C16.4736 25.9957 16.6647 25.868 16.8257 25.707C16.9866 25.5461 17.1143 25.355 17.2014 25.1447C17.2885 24.9344 17.3333 24.709 17.3333 24.4814V22.748C17.3333 22.2883 17.1507 21.8475 16.8257 21.5224C16.5006 21.1973 16.0597 21.0147 15.6 21.0147H13.8667Z" fill="white"/>
<path id="Vector_3" d="M14.7333 21.8809C15.193 21.8809 15.6339 22.0635 15.959 22.3885C16.284 22.7136 16.4667 23.1545 16.4667 23.6142C16.4667 24.0739 16.284 24.5148 15.959 24.8398C15.6339 25.1649 15.193 25.3475 14.7333 25.3475C14.2736 25.3475 13.8327 25.1649 13.5077 24.8398C13.1826 24.5148 13 24.0739 13 23.6142C13 23.1545 13.1826 22.7136 13.5077 22.3885C13.8327 22.0635 14.2736 21.8809 14.7333 21.8809ZM9.96666 21.8809C10.3114 21.8809 10.6421 22.0178 10.8859 22.2616C11.1297 22.5054 11.2667 22.8361 11.2667 23.1809V24.0475C11.2667 24.3923 11.1297 24.723 10.8859 24.9668C10.6421 25.2106 10.3114 25.3475 9.96666 25.3475C9.62188 25.3475 9.29122 25.2106 9.04743 24.9668C8.80363 24.723 8.66666 24.3923 8.66666 24.0475V23.1809C8.66666 22.8361 8.80363 22.5054 9.04743 22.2616C9.29122 22.0178 9.62188 21.8809 9.96666 21.8809ZM9.96666 23.6142C10.0236 23.6142 10.0799 23.603 10.1325 23.5812C10.1851 23.5594 10.2328 23.5275 10.2731 23.4873C10.3133 23.447 10.3452 23.3993 10.367 23.3467C10.3888 23.2941 10.4 23.2378 10.4 23.1809V24.0475C10.4 23.9326 10.3543 23.8224 10.2731 23.7411C10.1918 23.6598 10.0816 23.6142 9.96666 23.6142C9.85174 23.6142 9.74152 23.6598 9.66025 23.7411C9.57898 23.8224 9.53333 23.9326 9.53333 24.0475V23.1809C9.53333 23.2378 9.54454 23.2941 9.56632 23.3467C9.58809 23.3993 9.62001 23.447 9.66025 23.4873C9.70049 23.5275 9.74826 23.5594 9.80083 23.5812C9.85341 23.603 9.90976 23.6142 9.96666 23.6142ZM15.1667 26.2142H16.9C17.4746 26.2142 18.0257 26.4425 18.4321 26.8488C18.8384 27.2551 19.0667 27.8062 19.0667 28.3809V39.6475C19.0667 39.9321 19.0106 40.2138 18.9017 40.4767C18.7929 40.7395 18.6333 40.9784 18.4321 41.1796C18.2309 41.3808 17.992 41.5404 17.7291 41.6493C17.4663 41.7582 17.1845 41.8142 16.9 41.8142H15.1667C14.592 41.8142 14.0409 41.5859 13.6346 41.1796C13.2283 40.7733 13 40.2222 13 39.6475V28.3809C13 27.8062 13.2283 27.2551 13.6346 26.8488C14.0409 26.4425 14.592 26.2142 15.1667 26.2142ZM15.1667 27.9475C15.1098 27.9475 15.0534 27.9587 15.0008 27.9805C14.9483 28.0023 14.9005 28.0342 14.8603 28.0744C14.82 28.1147 14.7881 28.1625 14.7663 28.215C14.7445 28.2676 14.7333 28.324 14.7333 28.3809V39.6475C14.7333 39.7044 14.7445 39.7608 14.7663 39.8134C14.7881 39.8659 14.82 39.9137 14.8603 39.9539C14.9005 39.9942 14.9483 40.0261 15.0008 40.0479C15.0534 40.0697 15.1098 40.0809 15.1667 40.0809H16.9C17.0149 40.0809 17.1251 40.0352 17.2064 39.9539C17.2877 39.8727 17.3333 39.7625 17.3333 39.6475V28.3809C17.3333 28.2659 17.2877 28.1557 17.2064 28.0744C17.1251 27.9932 17.0149 27.9475 16.9 27.9475H15.1667Z" fill="white"/>
<path id="Vector_4" d="M14.5167 30.5468H15.8167C16.0465 30.5467 16.2669 30.4554 16.4294 30.2928C16.5918 30.1303 16.6831 29.9099 16.6831 29.6801C16.6831 29.4503 16.5918 29.2299 16.4294 29.0673C16.2669 28.9048 16.0465 28.8135 15.8167 28.8134H14.5167C14.4028 28.8134 14.2901 28.8358 14.1849 28.8793C14.0798 28.9229 13.9842 28.9867 13.9037 29.0672C13.8232 29.1477 13.7593 29.2432 13.7158 29.3484C13.6722 29.4535 13.6498 29.5663 13.6498 29.6801C13.6498 29.7939 13.6722 29.9066 13.7158 30.0118C13.7593 30.117 13.8232 30.2125 13.9037 30.293C13.9842 30.3735 14.0798 30.4373 14.1849 30.4808C14.2901 30.5244 14.4028 30.5468 14.5167 30.5468ZM26.0867 20.0428L34.1033 15.7094C34.3056 15.6002 34.4562 15.4152 34.522 15.195C34.5879 14.9747 34.5635 14.7374 34.4543 14.5351C34.3452 14.3328 34.1601 14.1822 33.9399 14.1164C33.7196 14.0506 33.4823 14.0749 33.28 14.1841L25.2633 18.5174C25.1632 18.5715 25.0747 18.6447 25.0028 18.733C24.931 18.8213 24.8772 18.9228 24.8446 19.0319C24.812 19.1409 24.8012 19.2553 24.8128 19.3686C24.8245 19.4818 24.8583 19.5916 24.9123 19.6918C24.9664 19.7919 25.0397 19.8804 25.1279 19.9523C25.2162 20.0241 25.3178 20.0779 25.4268 20.1105C25.5359 20.1431 25.6503 20.1539 25.7635 20.1422C25.8767 20.1306 25.9865 20.0968 26.0867 20.0428ZM22.9823 21.9893L23.7397 21.5863C23.9427 21.4784 24.0945 21.2942 24.1617 21.0744C24.2289 20.8546 24.206 20.6171 24.0981 20.4141C23.9902 20.2112 23.8061 20.0594 23.5862 19.9922C23.3664 19.925 23.1289 19.9478 22.9259 20.0558L22.1685 20.4588C21.9655 20.5668 21.8138 20.751 21.7466 20.9709C21.6795 21.1908 21.7025 21.4284 21.8105 21.6314C21.9186 21.8343 22.1028 21.9861 22.3227 22.0532C22.5426 22.1203 22.7802 22.0973 22.9831 21.9893H22.9823ZM14.5167 34.0134H15.8167C16.0465 34.0134 16.267 33.9221 16.4295 33.7596C16.592 33.5971 16.6833 33.3766 16.6833 33.1468C16.6833 32.9169 16.592 32.6965 16.4295 32.5339C16.267 32.3714 16.0465 32.2801 15.8167 32.2801H14.5167C14.2868 32.2801 14.0664 32.3714 13.9038 32.5339C13.7413 32.6965 13.65 32.9169 13.65 33.1468C13.65 33.3766 13.7413 33.5971 13.9038 33.7596C14.0664 33.9221 14.2868 34.0134 14.5167 34.0134ZM14.5167 37.4801H15.8167C16.0465 37.48 16.2669 37.3887 16.4294 37.2262C16.5918 37.0637 16.6831 36.8432 16.6831 36.6134C16.6831 36.3836 16.5918 36.1632 16.4294 36.0007C16.2669 35.8381 16.0465 35.7468 15.8167 35.7468H14.5167C14.4028 35.7467 14.2901 35.7691 14.1849 35.8127C14.0798 35.8562 13.9842 35.92 13.9037 36.0005C13.8232 36.081 13.7593 36.1766 13.7158 36.2817C13.6722 36.3869 13.6498 36.4996 13.6498 36.6134C13.6498 36.7273 13.6722 36.84 13.7158 36.9451C13.7593 37.0503 13.8232 37.1458 13.9037 37.2263C13.9842 37.3068 14.0798 37.3706 14.1849 37.4142C14.2901 37.4577 14.4028 37.4801 14.5167 37.4801ZM36.673 28.7718C37.5098 29.3604 38.5073 29.6774 39.5304 29.6801C42.5533 29.6801 44.9531 26.9406 44.9531 23.6134C44.9531 20.2863 42.5525 17.5468 39.5304 17.5468C38.4991 17.5468 37.5093 17.87 36.6565 18.4663L37.6506 19.8868C38.1996 19.4948 38.8567 19.2828 39.5313 19.2801C41.5411 19.2801 43.2198 21.1963 43.2198 23.6134C43.2198 26.0306 41.5411 27.9468 39.5304 27.9468C38.8648 27.9468 38.2252 27.7388 37.661 27.3479L36.673 28.7718Z" fill="white"/>
</g>
</svg>
