<svg width="24" height="24" viewBox="0 0 24 24" fill="none" xmlns="http://www.w3.org/2000/svg">
<g id="Group 1000001328">
<g id="linkedin-in 1">
<path id="Vector" d="M7.92168 5.34766C7.72938 5.34751 7.53893 5.38525 7.36121 5.45873C7.18349 5.5322 7.02199 5.63997 6.88594 5.77587C6.74988 5.91178 6.64193 6.07316 6.56825 6.25079C6.49457 6.42842 6.45662 6.61883 6.45654 6.81113C6.45654 7.62048 7.11234 8.29124 7.92002 8.29124C8.72881 8.29124 9.38516 7.62048 9.38516 6.81224C9.38531 6.61996 9.34756 6.42954 9.27408 6.25185C9.2006 6.07417 9.09282 5.91271 8.95691 5.77669C8.821 5.64068 8.65962 5.53278 8.48199 5.45916C8.30436 5.38555 8.11396 5.34766 7.92168 5.34766ZM15.0683 9.22809C13.8382 9.22809 13.1348 9.87113 12.7966 10.5109H12.7611V9.40049H10.337V17.5433H12.8631V13.5126C12.8631 12.4505 12.943 11.4239 14.2573 11.4239C15.5528 11.4239 15.5717 12.6351 15.5717 13.5797V17.5433H18.0978V13.0708C18.0978 10.8823 17.6272 9.22809 15.0683 9.22809ZM6.65777 9.39994V17.5433H9.1856V9.39994H6.65777Z" fill="#5278CC"/>
</g>
<circle id="Ellipse 75" cx="12" cy="12" r="11.75" stroke="#353738" stroke-width="0.5"/>
</g>
</svg>
