<svg width="8" height="13" viewBox="0 0 8 13" fill="none" xmlns="http://www.w3.org/2000/svg">
<path id="Arrow - Up 3" d="M0.0599313 6.22258C0.14409 6.37858 0.30412 6.47583 0.478175 6.47583H3.18847V11.8274C3.18847 12.0976 3.4027 12.3169 3.66665 12.3169C3.9306 12.3169 4.14482 12.0976 4.14482 11.8274V6.47583H6.85512C7.02982 6.47583 7.18985 6.37858 7.27337 6.22258C7.35816 6.06658 7.35243 5.87599 7.25998 5.72522L4.07151 0.545342C3.98352 0.403052 3.83114 0.316895 3.66665 0.316895C3.50216 0.316895 3.34978 0.403052 3.26179 0.545342L0.0733202 5.72522C0.0248651 5.80485 0 5.89557 0 5.9863C0 6.06723 0.0204022 6.14882 0.0599313 6.22258Z" fill="#00FF66"/>
</svg>
