<svg width="22" height="22" viewBox="0 0 22 22" fill="none" xmlns="http://www.w3.org/2000/svg">
<path id="globe" d="M11 0.25C5.072 0.25 0.25 5.073 0.25 11C0.25 16.927 5.072 21.75 11 21.75C16.928 21.75 21.75 16.927 21.75 11C21.75 5.073 16.928 0.25 11 0.25ZM20.212 10.25H16.162C16.031 7.507 15.187 4.71201 13.727 2.16101C17.27 3.25701 19.903 6.43 20.212 10.25ZM11.73 1.78699C13.486 4.39799 14.509 7.36 14.662 10.25H7.33801C7.49001 7.36 8.51399 4.39799 10.27 1.78699C10.512 1.76799 10.754 1.75 11 1.75C11.246 1.75 11.489 1.76799 11.73 1.78699ZM8.27301 2.16101C6.81301 4.71201 5.96901 7.507 5.83801 10.25H1.78799C2.09699 6.43 4.73001 3.25701 8.27301 2.16101ZM1.78799 11.75H5.83801C5.96901 14.493 6.81301 17.288 8.27301 19.839C4.73001 18.743 2.09699 15.57 1.78799 11.75ZM10.27 20.213C8.51399 17.602 7.49101 14.64 7.33801 11.75H14.662C14.51 14.64 13.486 17.602 11.73 20.213C11.488 20.232 11.246 20.25 11 20.25C10.754 20.25 10.511 20.232 10.27 20.213ZM13.727 19.839C15.187 17.288 16.031 14.493 16.162 11.75H20.212C19.903 15.57 17.27 18.743 13.727 19.839Z" fill="white"/>
</svg>
