<?xml version="1.0" standalone="no"?><!DOCTYPE svg PUBLIC "-//W3C//DTD SVG 1.1//EN" "http://www.w3.org/Graphics/SVG/1.1/DTD/svg11.dtd"><svg t="1691034058436" class="icon" viewBox="0 0 1024 1024" version="1.1" xmlns="http://www.w3.org/2000/svg" p-id="6650" xmlns:xlink="http://www.w3.org/1999/xlink" width="200" height="200"><path d="M405.2992 163.9424H225.28c-33.8944 0-61.44 27.5456-61.44 61.44v180.0192c0 33.8944 27.5456 61.44 61.44 61.44h180.0192c33.8944 0 61.44-27.5456 61.44-61.44V225.3824c0-33.8944-27.5456-61.44-61.44-61.44zM405.2992 557.1584H225.28c-33.8944 0-61.44 27.5456-61.44 61.44v180.0192c0 33.8944 27.5456 61.44 61.44 61.44h180.0192c33.8944 0 61.44-27.5456 61.44-61.44V618.5984c0-33.792-27.5456-61.44-61.44-61.44zM798.72 163.9424H618.7008c-33.8944 0-61.44 27.5456-61.44 61.44v180.0192c0 33.8944 27.5456 61.44 61.44 61.44H798.72c33.8944 0 61.44-27.5456 61.44-61.44V225.3824c0-33.8944-27.5456-61.44-61.44-61.44zM798.72 557.1584H618.7008c-33.8944 0-61.44 27.5456-61.44 61.44v180.0192c0 33.8944 27.5456 61.44 61.44 61.44H798.72c33.8944 0 61.44-27.5456 61.44-61.44V618.5984c0-33.792-27.5456-61.44-61.44-61.44z" p-id="6651" fill="#ffffff"></path></svg>