<svg width="18" height="18" viewBox="0 0 18 18" fill="none" xmlns="http://www.w3.org/2000/svg">
<path id="like" d="M3.5 8.29999V17.7C3.5 17.866 3.36595 18 3.19995 18H1.5C0.672 18 0 17.328 0 16.5V9.5C0 8.672 0.672 8 1.5 8H3.19995C3.36495 8 3.5 8.13399 3.5 8.29999ZM14.8979 6H10.998V2.76001C10.998 1.76001 10.498 0.82002 9.65796 0.27002C9.38796 0.0900195 9.07795 0 8.77795 0C8.14795 0 7.53797 0.380029 7.29797 1.03003L5.01294 7.95398C5.00294 7.98398 4.99805 8.01597 4.99805 8.04797V17.7C4.99805 17.866 5.13197 18 5.29797 18H12.897C14.907 18 15.3369 17.17 15.7469 15.95L17.7469 9.95001C18.3979 8.01001 17.9079 6 14.8979 6Z" fill="#16C551"/>
</svg>
