<svg width="45" height="45" viewBox="0 0 45 45" fill="none" xmlns="http://www.w3.org/2000/svg">
<g id="&#229;&#164;&#177;&#232;&#180;&#165; 1">
<path id="Vector" d="M22.4999 2.86914C11.6583 2.86914 2.86914 11.6583 2.86914 22.4999C2.86914 33.3416 11.6583 42.1307 22.4999 42.1307C33.3416 42.1307 42.1307 33.3416 42.1307 22.4999C42.1307 11.6583 33.3416 2.86914 22.4999 2.86914ZM31.5012 28.0307C31.8002 28.3303 31.8002 28.8154 31.5012 29.1151L29.115 31.5012C28.8153 31.8002 28.3303 31.8009 28.0306 31.5012L22.4999 25.9705L16.9691 31.5012C16.6695 31.8002 16.1838 31.8002 15.8848 31.5012L13.4986 29.1151C13.1996 28.816 13.1996 28.3303 13.4986 28.0307L19.03 22.4999L13.4986 16.9692C13.1996 16.6695 13.1996 16.1838 13.4986 15.8848L15.8848 13.4986C16.1845 13.1996 16.6695 13.1996 16.9691 13.4986L22.4999 19.0301L28.0306 13.4986C28.3303 13.1996 28.8153 13.1996 29.115 13.4986L31.5012 15.8848C31.8002 16.1838 31.8002 16.6695 31.5012 16.9692L25.9704 22.4999L31.5012 28.0307Z" fill="#FF696A"/>
</g>
</svg>
