<svg width="52" height="52" viewBox="0 0 52 52" fill="none" xmlns="http://www.w3.org/2000/svg">
<g id="&#230;&#136;&#144;&#229;&#138;&#159; 1">
<path id="Vector" d="M26 45.5C15.2311 45.5 6.5 36.7689 6.5 26C6.5 15.2311 15.2311 6.5 26 6.5C36.7689 6.5 45.5 15.2311 45.5 26C45.5 36.7689 36.7689 45.5 26 45.5ZM23.7023 29.3881L17.6686 25.8115C17.4376 25.5962 17.132 25.479 16.8163 25.4846C16.5005 25.4902 16.1993 25.6181 15.976 25.8414C15.7527 26.0647 15.6248 26.3659 15.6192 26.6817C15.6136 26.9974 15.7308 27.303 15.9461 27.534L22.8394 34.4289C22.9526 34.5421 23.0869 34.632 23.2349 34.6933C23.3828 34.7546 23.5413 34.7861 23.7014 34.7861C23.8616 34.7861 24.0201 34.7546 24.168 34.6933C24.3159 34.632 24.4503 34.5421 24.5635 34.4289L36.0539 22.9401C36.1672 22.827 36.2571 22.6927 36.3185 22.5449C36.3799 22.397 36.4116 22.2385 36.4118 22.0784C36.4119 21.9183 36.3805 21.7597 36.3194 21.6118C36.2583 21.4638 36.1686 21.3293 36.0555 21.216C35.9424 21.1027 35.8081 21.0128 35.6602 20.9514C35.5124 20.8899 35.3539 20.8583 35.1938 20.8581C35.0337 20.858 34.8751 20.8893 34.7271 20.9505C34.5792 21.0116 34.4447 21.1013 34.3314 21.2144L23.7023 29.3881Z" fill="#63CF4E"/>
</g>
</svg>
