<svg width="43" height="43" viewBox="0 0 43 43" fill="none" xmlns="http://www.w3.org/2000/svg">
<g id="&#230;&#143;&#144;&#231;&#164;&#186; 2">
<path id="Vector" d="M21.5 40.2299C11.1733 40.2299 2.77079 31.8288 2.77079 21.5007C2.77079 11.174 11.1732 2.77148 21.5 2.77148C31.8281 2.77148 40.2292 11.1726 40.2292 21.5007C40.2292 31.8288 31.8281 40.2299 21.5 40.2299ZM21.5 5.45898C12.6541 5.45898 5.45829 12.6547 5.45829 21.5007C5.45829 30.3453 12.654 37.5424 21.5 37.5424C30.3446 37.5424 37.5417 30.3467 37.5417 21.5007C37.5417 12.6547 30.3446 5.45898 21.5 5.45898Z" fill="white"/>
<path id="Vector_2" d="M19.4844 12.7656C19.4844 13.8789 20.3868 14.7813 21.5 14.7813C22.6132 14.7813 23.5156 13.8789 23.5156 12.7656C23.5156 11.6524 22.6132 10.75 21.5 10.75C20.3868 10.75 19.4844 11.6524 19.4844 12.7656Z" fill="white"/>
<path id="Vector_3" d="M21.5 32.25C20.7582 32.25 20.1562 31.6494 20.1562 30.9062V18.8125C20.1562 18.0708 20.7582 17.4688 21.5 17.4688C22.2418 17.4688 22.8438 18.0708 22.8438 18.8125V30.9062C22.8438 31.6494 22.2418 32.25 21.5 32.25Z" fill="white"/>
</g>
</svg>
