<?xml version="1.0" standalone="no"?><!DOCTYPE svg PUBLIC "-//W3C//DTD SVG 1.1//EN" "http://www.w3.org/Graphics/SVG/1.1/DTD/svg11.dtd"><svg t="1691034086146" class="icon" viewBox="0 0 1024 1024" version="1.1" xmlns="http://www.w3.org/2000/svg" p-id="9375" xmlns:xlink="http://www.w3.org/1999/xlink" width="200" height="200"><path d="M947.2 422.4H416c-38.4 0-51.2 12.8-51.2 51.2v147.2c0 38.4 12.8 51.2 51.2 51.2h531.2c38.4 0 51.2-12.8 51.2-51.2V473.6c0-38.4-12.8-51.2-51.2-51.2z m0-339.2H416c-38.4 0-51.2 12.8-51.2 51.2v147.2c0 38.4 12.8 51.2 51.2 51.2h531.2c38.4 0 51.2-12.8 51.2-51.2V134.4c0-38.4-12.8-51.2-51.2-51.2zM217.6 422.4H76.8c-38.4 0-51.2 12.8-51.2 51.2v147.2c0 38.4 12.8 51.2 51.2 51.2h147.2c38.4 0 51.2-12.8 51.2-51.2V473.6c-6.4-38.4-19.2-51.2-57.6-51.2z m0-339.2H76.8c-38.4 0-51.2 12.8-51.2 51.2v147.2c0 38.4 12.8 51.2 51.2 51.2h147.2c38.4 0 51.2-12.8 51.2-51.2V134.4c-6.4-38.4-19.2-51.2-57.6-51.2zM947.2 768H416c-38.4 0-51.2 12.8-51.2 51.2V960c0 38.4 12.8 51.2 51.2 51.2h531.2c38.4 0 51.2-12.8 51.2-51.2v-147.2c0-32-12.8-44.8-51.2-44.8zM217.6 768H76.8c-38.4 0-51.2 12.8-51.2 51.2V960c0 38.4 12.8 51.2 51.2 51.2h147.2c38.4 0 51.2-12.8 51.2-51.2v-147.2c-6.4-32-19.2-44.8-57.6-44.8z" fill="#ffffff" p-id="9376"></path></svg>