<svg width="24" height="24" viewBox="0 0 24 24" fill="none" xmlns="http://www.w3.org/2000/svg">
<g id="Hicon / Linear / Setting">
<g id="Setting">
<path id="Vector" d="M5.93188 5.38691L5.74952 6.1144L5.93188 5.38691ZM9.30644 3.43861L8.58523 3.23279L9.30644 3.43861ZM3.23837 10.0522L3.77722 9.53053L3.23837 10.0522ZM3.23837 13.9488L2.69952 13.4271H2.69952L3.23837 13.9488ZM5.93188 18.6141L6.11423 19.3416L5.93188 18.6141ZM9.30644 20.5624L8.58523 20.7682L9.30644 20.5624ZM14.6935 20.5624L15.4147 20.7682L14.6935 20.5624ZM18.068 18.6141L18.2504 17.8866L18.068 18.6141ZM20.7615 13.9488L20.2227 14.4705V14.4705L20.7615 13.9488ZM20.7615 10.0522L20.2227 9.53053V9.53053L20.7615 10.0522ZM18.068 5.38691L17.8857 4.65942L18.068 5.38691ZM14.6935 3.43861L15.4147 3.23279L14.6935 3.43861ZM5.74952 6.1144C7.60843 6.58036 9.50172 5.48727 10.0276 3.64443L8.58523 3.23279C8.28146 4.29719 7.18792 4.92855 6.11423 4.65942L5.74952 6.1144ZM3.77722 9.53053C2.34195 8.048 3.74798 5.61269 5.74952 6.1144L6.11423 4.65942C2.6489 3.79079 0.214599 8.00712 2.69952 10.5739L3.77722 9.53053ZM3.77722 14.4705C5.1102 13.0936 5.1102 10.9074 3.77722 9.53053L2.69952 10.5739C3.46944 11.3691 3.46944 12.6319 2.69952 13.4271L3.77722 14.4705ZM5.74952 17.8866C3.74798 18.3883 2.34195 15.953 3.77722 14.4705L2.69952 13.4271C0.214598 15.9939 2.6489 20.2102 6.11423 19.3416L5.74952 17.8866ZM10.0276 20.3566C9.50172 18.5137 7.60843 17.4207 5.74952 17.8866L6.11423 19.3416C7.18792 19.0725 8.28146 19.7038 8.58523 20.7682L10.0276 20.3566ZM13.9722 20.3566C13.406 22.3408 10.5939 22.3408 10.0276 20.3566L8.58523 20.7682C9.56564 24.2036 14.4342 24.2036 15.4147 20.7682L13.9722 20.3566ZM18.2504 17.8866C16.3915 17.4207 14.4982 18.5137 13.9722 20.3566L15.4147 20.7682C15.7184 19.7038 16.812 19.0725 17.8857 19.3416L18.2504 17.8866ZM20.2227 14.4705C21.6579 15.953 20.2519 18.3883 18.2504 17.8866L17.8857 19.3416C21.351 20.2102 23.7853 15.9939 21.3004 13.4271L20.2227 14.4705ZM20.2227 9.53053C18.8897 10.9074 18.8897 13.0936 20.2227 14.4705L21.3004 13.4271C20.5305 12.6319 20.5305 11.3691 21.3004 10.5739L20.2227 9.53053ZM18.2504 6.1144C20.2519 5.61269 21.6579 8.048 20.2227 9.53053L21.3004 10.5739C23.7853 8.00712 21.351 3.79079 17.8857 4.65942L18.2504 6.1144ZM13.9722 3.64443C14.4982 5.48727 16.3915 6.58036 18.2504 6.1144L17.8857 4.65942C16.812 4.92855 15.7184 4.29719 15.4147 3.23279L13.9722 3.64443ZM15.4147 3.23279C14.4342 -0.202596 9.56564 -0.202595 8.58523 3.23279L10.0276 3.64443C10.5939 1.66019 13.406 1.66019 13.9722 3.64443L15.4147 3.23279ZM8.24994 12.0005C8.24994 14.0716 9.92888 15.7505 11.9999 15.7505V14.2505C10.7573 14.2505 9.74994 13.2431 9.74994 12.0005H8.24994ZM11.9999 15.7505C14.071 15.7505 15.7499 14.0716 15.7499 12.0005H14.2499C14.2499 13.2431 13.2426 14.2505 11.9999 14.2505V15.7505ZM15.7499 12.0005C15.7499 9.92944 14.071 8.2505 11.9999 8.2505V9.7505C13.2426 9.7505 14.2499 10.7579 14.2499 12.0005H15.7499ZM11.9999 8.2505C9.92888 8.2505 8.24994 9.92944 8.24994 12.0005H9.74994C9.74994 10.7579 10.7573 9.7505 11.9999 9.7505V8.2505Z" fill="white"/>
</g>
</g>
</svg>
