<svg width="20" height="20" viewBox="0 0 20 20" fill="none" xmlns="http://www.w3.org/2000/svg">
<g id="star">
<path id="star_2" d="M14.045 18.1245C13.8042 18.1245 13.5625 18.067 13.3383 17.9495L10.0984 16.2537C10.0367 16.2212 9.96332 16.2212 9.90165 16.2537L6.66415 17.9479C6.14831 18.2179 5.53506 18.1728 5.0634 17.8295C4.59423 17.487 4.36255 16.9195 4.46088 16.347L5.07835 12.7628C5.09002 12.6953 5.06748 12.627 5.01915 12.5795L2.31834 9.95786C1.91751 9.56869 1.77505 8.99616 1.94755 8.46366C2.12005 7.93116 2.57165 7.55034 3.12665 7.4695L6.8617 6.92949C6.93003 6.91949 6.98835 6.87701 7.01835 6.81617L8.63752 3.5512C8.89585 3.03036 9.41754 2.70703 9.99921 2.70703C10.5809 2.70703 11.1026 3.03036 11.3609 3.5512L12.9791 6.81536C13.01 6.87703 13.0684 6.91949 13.1367 6.92949L16.8717 7.4695C17.4267 7.5495 17.8784 7.93033 18.0509 8.46366C18.2234 8.99616 18.0808 9.56869 17.68 9.95786L14.98 12.5787C14.93 12.627 14.9084 12.6953 14.9201 12.7628L15.5375 16.3487C15.6359 16.9204 15.4058 17.4878 14.9358 17.8295C14.6708 18.0253 14.3584 18.1245 14.045 18.1245ZM10 14.9795C10.2325 14.9795 10.4658 15.0345 10.6775 15.1453L13.9176 16.8412C14.0467 16.9095 14.1517 16.857 14.2017 16.8203C14.2517 16.7845 14.3308 16.702 14.3067 16.562L13.6892 12.9753C13.6075 12.5003 13.7658 12.017 14.1117 11.682L16.8108 9.06201C16.8917 8.98368 16.8783 8.89532 16.8633 8.85032C16.8483 8.80449 16.8067 8.72452 16.6942 8.70786L12.9592 8.16785C12.4834 8.09951 12.0726 7.80119 11.8601 7.37119L10.2425 4.10784C10.1784 3.97784 10.0633 3.95866 10.0008 3.95866C9.93834 3.95866 9.82341 3.97784 9.75924 4.10784L8.14089 7.372C7.92923 7.80117 7.5184 8.09951 7.04256 8.16785L3.30752 8.70786C3.19502 8.72452 3.15252 8.80365 3.13835 8.85032C3.12335 8.89615 3.11084 8.98368 3.19084 9.06201L5.89083 11.6829C6.23583 12.017 6.39415 12.5003 6.31248 12.9753L5.69501 16.5595C5.67084 16.7004 5.75091 16.7829 5.80091 16.8195C5.85257 16.8562 5.95415 16.9078 6.08665 16.8403L9.32416 15.1462C9.53416 15.0354 9.76752 14.9795 10 14.9795Z" fill="white"/>
</g>
</svg>
