<svg width="18" height="17" viewBox="0 0 18 17" fill="none" xmlns="http://www.w3.org/2000/svg">
<path d="M13.045 16.1245C12.8042 16.1245 12.5625 16.067 12.3383 15.9495L9.09839 14.2537C9.03672 14.2212 8.96332 14.2212 8.90166 14.2537L5.66415 15.9479C5.14831 16.2179 4.53506 16.1728 4.0634 15.8295C3.59423 15.487 3.36255 14.9195 3.46088 14.347L4.07835 10.7628C4.09002 10.6953 4.06748 10.627 4.01915 10.5795L1.31834 7.95786C0.917509 7.56869 0.775054 6.99616 0.947554 6.46366C1.12005 5.93116 1.57165 5.55034 2.12665 5.4695L5.8617 4.92949C5.93003 4.91949 5.98835 4.87701 6.01835 4.81617L7.63752 1.5512C7.89585 1.03036 8.41754 0.707031 8.99921 0.707031C9.58088 0.707031 10.1026 1.03036 10.3609 1.5512L11.9791 4.81536C12.01 4.87702 12.0684 4.91949 12.1367 4.92949L15.8717 5.4695C16.4267 5.5495 16.8784 5.93033 17.0509 6.46366C17.2234 6.99616 17.0808 7.56869 16.68 7.95786L13.98 10.5787C13.93 10.627 13.9084 10.6953 13.9201 10.7628L14.5375 14.3487C14.6359 14.9204 14.4058 15.4878 13.9358 15.8295C13.6708 16.0253 13.3584 16.1245 13.045 16.1245Z" fill="#FFB800"/>
</svg>
