<svg width="43" height="43" viewBox="0 0 43 43" fill="none" xmlns="http://www.w3.org/2000/svg">
<g id="&#229;&#155;&#190;&#228;&#185;&#166; 1">
<path id="Vector" d="M36.1435 17.0562L39.8266 13.3724C40.411 12.788 40.411 11.8407 39.8266 11.2565C39.4907 10.9209 39.0354 10.7847 38.5976 10.8349C38.5434 10.8289 38.4905 10.8184 38.4346 10.8184L35.111 10.8189C34.757 7.5758 32.0037 5.04297 28.6682 5.04297L9.2184 5.04297C5.64336 5.04297 2.73505 7.95149 2.73505 11.5265V31.4753C2.73505 35.0503 5.64336 37.9586 9.2184 37.9586H28.6682C32.243 37.9586 35.1516 35.0503 35.1516 31.4753V23.2868L38.4346 23.2864C38.4786 23.2864 38.5199 23.2771 38.5629 23.2734C38.6313 23.2829 38.6998 23.2932 38.7687 23.2932C39.1515 23.2932 39.5344 23.1471 39.8266 22.8549C40.411 22.2707 40.411 21.3234 39.8266 20.7392L36.1435 17.0562ZM30.7322 20.295C30.5487 20.295 30.375 20.3327 30.2126 20.3931V13.7135C30.3751 13.774 30.5488 13.8117 30.7322 13.8117L35.157 13.8111L32.9702 15.9984C32.6779 16.2905 32.5318 16.6735 32.5318 17.0564C32.5318 17.4393 32.6779 17.8222 32.9702 18.1144C32.9706 18.1148 32.9711 18.115 32.9715 18.1154L35.1505 20.2945L30.7322 20.295ZM32.087 10.8192L30.7322 10.8194C30.5487 10.8194 30.375 10.857 30.2126 10.9175V8.71053C30.2126 8.59713 30.1976 8.48764 30.1737 8.38146C31.1409 8.84653 31.8642 9.74106 32.087 10.8192ZM9.2184 8.03524H27.3882C27.2844 8.23893 27.2203 8.46616 27.2203 8.71053V26.9868H9.2184C7.9625 26.9868 6.75501 27.3566 5.72737 28.0134V11.5265C5.72737 9.60158 7.29344 8.03524 9.2184 8.03524ZM32.1593 31.4753C32.1593 33.4003 30.593 34.9663 28.6682 34.9663H9.2184C7.52853 34.9663 6.11599 33.7592 5.79599 32.1621C5.94879 32.0454 6.08836 31.908 6.19029 31.731C6.81221 30.6503 7.97259 29.9792 9.2184 29.9792H27.6708C27.8304 29.9792 27.9812 29.9475 28.1254 29.9013C28.3068 29.9794 28.5064 30.0235 28.7164 30.0235C29.5429 30.0235 30.2126 29.3536 30.2126 28.5274V23.1892C30.3751 23.2497 30.5488 23.2874 30.7322 23.2874L32.1592 23.2872V31.4753H32.1593Z" fill="white"/>
</g>
</svg>
